<svg xmlns="http://www.w3.org/2000/svg" xmlns:xlink="http://www.w3.org/1999/xlink" id="Camada_2_00000027584856435573040120000003918335478832386739_" x="0px" y="0px" viewBox="0 0 212.5 436" style="enable-background:new 0 0 212.5 436;" xml:space="preserve"><style type="text/css">	.st0{fill:#4CA1D2;}</style><g id="Camada_1-2">	<g>		<path class="st0" d="M81,244.8c-1.5-0.1-2.8-0.3-4.1-0.3c-14,0-28,0-42,0c-1.7,0-3.5-0.1-5.2-0.4c-2.3-0.4-4-2.1-4.5-4.4   c-0.2-1-0.3-2-0.3-3c0-5.8-0.1-11.6,0.1-17.4c0-1.6,0.5-3.5,1.4-4.9c1.5-2.4,4.3-3.5,6.3-2.7c2.7,1.1,5,2.9,5.1,6.1   c0.1,3.9,0.1,7.8-0.2,11.7c-0.2,1.9,0.5,2.4,2.1,2.4c4.7,0,9.4,0,14.1,0c38.7,0,77.3,0,116,0c4.9,0,4.8,0,4.7-4.8   c-0.1-8.8-0.1-17.6-0.1-26.3c0-2.8,0-2.8-2.9-2.8c-54.5,0-108.9,0-163.4,0c-1.2,0-2.3,0-3.4-0.3c-3.3-0.8-4.8-2.6-4.8-6   c0-11.5,0-22.9,0-34.4c0-27.1,0-54.2,0-81.4c0-5.4,2.1-7.6,7.5-7.6c7.7-0.1,15.4,0,23.1,0c3.5,0,3.4,0,3.4-3.4   c0-16.1,0-32.2,0-48.3c0-3.3,0-6.5,0-9.8c0-3.7,2.6-6.5,6.1-6.5c4.1-0.1,6.5,2.1,6.5,6.1c0.1,14.4,0.1,28.9,0.1,43.3   c0,6.1,0,12.2,0,18.4h118.9c0-1.3,0-2.7,0-4.1c0-19,0.1-38,0.1-57c0-2.3,0.6-4.2,2.5-5.7c2.1-1.6,4.3-1.6,6.5-0.5   c2.2,1.1,3.7,2.8,3.7,5.4c0,8.6,0,17.3,0,25.9c0,11.4,0,22.8-0.1,34.2c0,0.6,0,1.1,0,2.1c1,0,1.8,0,2.7,0c7.8,0,15.7-0.1,23.5,0   c5.6,0,7.8,2.2,7.8,7.8c0,38.4,0,76.9,0,115.3c0,4.2-2.4,6.6-6.9,6.6c-5.4,0-10.7,0-16.1,0c-0.7,0-1.4,0-2.3,0c0,1.4,0,2.6,0,3.9   c0,10.6,0,21.2,0,31.8c0,1,0.1,2,0.1,3c0.4,4.9-2.2,7.9-7.1,7.9c-27.9,0-55.7,0-83.6,0c-3.1,0-3.1,0-3.1,3.1   c0,12.8,0,25.7,0.1,38.5c0.1,8-0.3,8.3-7.8,11.1c-25,9.2-40,27-43.8,53.3c-2.5,17.4,2.2,33.4,13.2,47.5   c18.4,23.4,50,32.2,77.4,20.9c23.5-9.6,37.5-27.3,41.1-52.6c0.8-5.3,0.2-10.7,0.1-16.1c0-0.8-0.3-1.6-0.6-2.9   c-0.8,0.8-1.4,1.2-1.8,1.7c-8.5,8.3-16.9,16.5-25.4,24.8c-10.8,10.5-26.1,12.7-39.4,5.9c-19.1-9.9-23.2-36.1-7.9-51.2   c5.3-5.2,10.6-10.6,16-15.7c3.1-3,4.4-6.5,4.3-10.7c-0.1-12.2-0.1-24.5-0.2-36.8c0-4.4,2.5-7.2,6.3-7.1c3.1,0,5.9,2.4,6,5.4   c0.2,3.5,0.1,7,0.1,10.4c0,9.4-0.2,18.9,0.1,28.3c0.2,7.9-2.6,14.2-8.2,19.6c-4.5,4.3-9,8.7-13.5,13c-5.1,4.9-8.2,10.6-7.7,17.9   c0.6,10.9,11.2,19.6,22.1,18.4c5.4-0.6,9.9-2.9,13.7-6.7c11.2-11,22.5-22,33.7-33c4.1-4,9.5-2.8,11.2,2.5   c3.9,12.1,5.5,24.5,3.2,37.1c-3.2,17.9-11.7,33-25.4,45.2c-12.2,10.8-26.4,17.3-42.5,19.3c-41.9,5.3-80-22-87.9-62.1   c-5.6-28,3.3-51.8,23.5-71.4c7.2-6.9,15.8-12,25.2-15.5c0.9-0.4,1.8-0.5,1.8-2C81,271.3,81,258.3,81,244.8L81,244.8z M200,87.3   c-0.2,0-0.4-0.1-0.6-0.1c-0.5,0.5-1.1,0.9-1.6,1.4c-22.2,22.2-44.4,44.4-66.6,66.6c-3.5,3.5-6.9,7.1-10.6,10.4   c-2.7,2.5-5.9,1.9-8.6-1c-2.3-2.5-2.2-6,0.1-8.4c24.5-24.4,49-48.9,73.4-73.3c0.5-0.5,1-1.1,1.6-1.7c-0.4-0.2-0.5-0.3-0.6-0.3   c-16.7,0-33.3,0.1-50,0.1c-0.8,0-1.7,0.3-2.3,0.8c-2.2,2-4.3,4.1-6.4,6.2c-13.2,13.2-26.3,26.4-39.5,39.6   c-1.9,1.9-5.2,2.5-7.2,1.6c-3.5-1.7-5.7-6-1.8-9.9c12.2-12,24.3-24.2,36.4-36.2c0.6-0.6,1.2-1.3,2-2.2c-2.1,0.1-3.6,0.2-5.1,0.2   c-14.4,0-28.7,0-43.1-0.1c-2.5,0-4.4,0.6-6.2,2.4c-10.4,10.5-20.9,21-31.4,31.4c-2.5,2.5-5.9,2.7-8.2,0.6   c-3.5-3.3-3.6-5.4-1.2-8.5c0.6-0.8,1.2-1.6,1.9-2.3c5.2-5.2,10.4-10.3,15.6-15.4c2.5-2.5,5-5.1,7.7-7.9c-0.8-0.1-1.3-0.2-1.9-0.2   c-10.5,0-21,0.1-31.5,0c-1.6,0-1.7,0.7-1.7,2c0,26.4,0.1,52.8,0,79.2c0,6.8-0.3,13.6-0.4,20.4c0,0.6,0.3,1.3,0.4,2.2   c0.6-0.5,0.9-0.7,1.1-1c9.7-9.8,19.4-19.6,29.1-29.3c1.7-1.7,3.6-3.3,5.5-4.9c2-1.7,4.1-1.5,6.3-0.4c2.2,1.1,3.8,3,3.5,5.3   c-0.3,2.1-1.5,4.3-2.9,5.8c-4.8,5.2-10.1,10-15,15.1c-2.9,3-5.5,6.3-8.2,9.4c0.4,0,1.5,0.3,2.6,0.3c1.8,0.1,3.6-0.1,5.4-0.1   c35.5,0,70.9-0.1,106.4,0c3.2,0,5.5-0.9,7.8-3.2c14.7-14.9,29.5-29.5,44.3-44.3c0.6-0.6,1-1.9,1-2.8c0.1-14.6,0-29.1,0-43.7   C199.8,89.8,199.9,88.6,200,87.3L200,87.3z M199.6,155.4c-0.2-0.1-0.4-0.3-0.5-0.4c-9.6,10-19.2,20.1-28.8,30h29.3L199.6,155.4   L199.6,155.4z"></path>		<path class="st0" d="M74.5,138.9c0.3,4-4,6.3-6.7,6.3c-2.9,0-6.1-3.4-6-6.3c0.1-3.2,3.1-6.3,6.3-6.3   C71.7,132.5,74.6,135.2,74.5,138.9L74.5,138.9z"></path>	</g></g></svg>